{
  "source": "C:\\Users\\Peter\\Desktop\\stuff\\MIUN\\quantitative_research\\video_compression\\videos\\HEVC_CLASS_B\\Kimono_1920x1080_24.y4m",
  "output": "C:\\Users\\Peter\\Desktop\\stuff\\MIUN\\quantitative_research\\video_compression\\compressed_videos\\HEVC_CLASS_B\\vp9\\3\\Kimono_1920x1080_24_vp9.webm",
  "codec": "vp9",
  "ok": "Input #0, yuv4mpegpipe, from 'C:\\Users\\Peter\\Desktop\\stuff\\MIUN\\quantitative_research\\video_compression\\videos\\HEVC_CLASS_B\\Kimono_1920x1080_24.y4m':\n  Duration: 00:00:10.00, start: 0.000000, bitrate: 597198 kb/s\n  Stream #0:0: Video: rawvideo (I420 / 0x30323449), yuv420p(progressive), 1920x1080, 24 fps, 24 tbr, 24 tbn\n[out#0/webm @ 0000020b55b69b40] Codec AVOption b:a (set bitrate (in bits/s)) has not been used for any stream. The most likely reason is either wrong type (e.g. a video option with no video streams) or that it is a private option of some decoder which was not actually used for any stream.\nStream mapping:\n  Stream #0:0 -> #0:0 (rawvideo (native) -> vp9 (libvpx-vp9))\nPress [q] to stop, [?] for help\n[libvpx-vp9 @ 0000020b55b6be80] v1.15.2-100-g40561f514\nOutput #0, webm, to 'C:\\Users\\Peter\\Desktop\\stuff\\MIUN\\quantitative_research\\video_compression\\compressed_videos\\HEVC_CLASS_B\\vp9\\3\\Kimono_1920x1080_24_vp9.webm':\n  Metadata:\n    encoder         : Lavf62.3.100\n  Stream #0:0: Video: vp9, yuv420p(tv, progressive), 1920x1080, q=2-31, 3000 kb/s, 24 fps, 1k tbn\n    Metadata:\n      encoder         : Lavc62.11.100 libvpx-vp9\n    Side data:\n      cpb: bitrate max/min/avg: 0/0/0 buffer size: 3000000 vbv_delay: N/A\nframe=    0 fps=0.0 q=0.0 size=       0KiB time=N/A bitrate=N/A speed=N/A elapsed=0:00:00.55    \nframe=    3 fps=2.5 q=45.0 size=       0KiB time=00:00:00.12 bitrate=  30.8kbits/s speed=0.106x elapsed=0:00:01.18    \nframe=    6 fps=3.5 q=48.0 size=       0KiB time=00:00:00.25 bitrate=  15.4kbits/s speed=0.146x elapsed=0:00:01.71    \nframe=    9 fps=4.0 q=46.0 size=       0KiB time=00:00:00.37 bitrate=  10.3kbits/s speed=0.166x elapsed=0:00:02.25    \nframe=   12 fps=4.3 q=46.0 size=       0KiB time=00:00:00.50 bitrate=   7.7kbits/s speed=0.179x elapsed=0:00:02.79    \nframe=   14 fps=4.2 q=44.0 size=       0KiB time=00:00:00.58 bitrate=   6.6kbits/s speed=0.175x elapsed=0:00:03.34    \nframe=   16 fps=4.1 q=45.0 size=       0KiB time=00:00:00.66 bitrate=   5.8kbits/s speed=0.171x elapsed=0:00:03.90    \nframe=   19 fps=4.3 q=45.0 size=       0KiB time=00:00:00.79 bitrate=   4.9kbits/s speed=0.177x elapsed=0:00:04.46    \nframe=   20 fps=4.0 q=45.0 size=       0KiB time=00:00:00.83 bitrate=   4.6kbits/s speed=0.166x elapsed=0:00:05.01    \nframe=   24 fps=4.3 q=43.0 size=       0KiB time=00:00:01.00 bitrate=   3.9kbits/s speed=0.181x elapsed=0:00:05.52    \nframe=   27 fps=4.5 q=43.0 size=       0KiB time=00:00:01.12 bitrate=   3.4kbits/s speed=0.186x elapsed=0:00:06.04    \nframe=   29 fps=4.4 q=43.0 size=       0KiB time=00:00:01.20 bitrate=   3.2kbits/s speed=0.184x elapsed=0:00:06.55    \nframe=   31 fps=4.4 q=24.0 size=       0KiB time=00:00:01.29 bitrate=   3.0kbits/s speed=0.183x elapsed=0:00:07.06    \nframe=   34 fps=4.5 q=42.0 size=       0KiB time=00:00:01.41 bitrate=   2.7kbits/s speed=0.187x elapsed=0:00:07.58    \nframe=   37 fps=4.6 q=43.0 size=       0KiB time=00:00:01.54 bitrate=   2.5kbits/s speed=0.19x elapsed=0:00:08.10    \nframe=   40 fps=4.6 q=43.0 size=       0KiB time=00:00:01.66 bitrate=   2.3kbits/s speed=0.193x elapsed=0:00:08.61    \nframe=   42 fps=4.6 q=42.0 size=       0KiB time=00:00:01.75 bitrate=   2.2kbits/s speed=0.192x elapsed=0:00:09.13    \nframe=   45 fps=4.7 q=41.0 size=       0KiB time=00:00:01.87 bitrate=   2.1kbits/s speed=0.194x elapsed=0:00:09.65    \nframe=   46 fps=4.5 q=42.0 size=       0KiB time=00:00:01.91 bitrate=   2.0kbits/s speed=0.189x elapsed=0:00:10.16    \nframe=   49 fps=4.6 q=41.0 size=       0KiB time=00:00:02.04 bitrate=   1.9kbits/s speed=0.191x elapsed=0:00:10.67    \nframe=   52 fps=4.6 q=42.0 size=       0KiB time=00:00:02.16 bitrate=   1.8kbits/s speed=0.194x elapsed=0:00:11.19    \nframe=   55 fps=4.7 q=42.0 size=       0KiB time=00:00:02.29 bitrate=   1.7kbits/s speed=0.196x elapsed=0:00:11.70    \nframe=   58 fps=4.7 q=42.0 size=       0KiB time=00:00:02.41 bitrate=   1.6kbits/s speed=0.198x elapsed=0:00:12.23    \nframe=   60 fps=4.7 q=42.0 size=       0KiB time=00:00:02.50 bitrate=   1.5kbits/s speed=0.196x elapsed=0:00:12.74    \nframe=   63 fps=4.8 q=42.0 size=       0KiB time=00:00:02.62 bitrate=   1.5kbits/s speed=0.198x elapsed=0:00:13.26    \nframe=   65 fps=4.7 q=30.0 size=       0KiB time=00:00:02.70 bitrate=   1.4kbits/s speed=0.197x elapsed=0:00:13.76    \nframe=   69 fps=4.8 q=41.0 size=       0KiB time=00:00:02.87 bitrate=   1.3kbits/s speed=0.201x elapsed=0:00:14.29    \nframe=   71 fps=4.8 q=30.0 size=       0KiB time=00:00:02.95 bitrate=   1.3kbits/s speed= 0.2x elapsed=0:00:14.80    \nframe=   74 fps=4.8 q=41.0 size=       0KiB time=00:00:03.08 bitrate=   1.3kbits/s speed=0.201x elapsed=0:00:15.31    \nframe=   77 fps=4.9 q=30.0 size=       0KiB time=00:00:03.20 bitrate=   1.2kbits/s speed=0.203x elapsed=0:00:15.84    \nframe=   80 fps=4.9 q=41.0 size=       0KiB time=00:00:03.33 bitrate=   1.2kbits/s speed=0.204x elapsed=0:00:16.35    \nframe=   82 fps=4.9 q=41.0 size=       0KiB time=00:00:03.41 bitrate=   1.1kbits/s speed=0.203x elapsed=0:00:16.86    \nframe=   86 fps=4.9 q=41.0 size=       0KiB time=00:00:03.58 bitrate=   1.1kbits/s speed=0.206x elapsed=0:00:17.38    \nframe=   88 fps=4.9 q=42.0 size=       0KiB time=00:00:03.66 bitrate=   1.1kbits/s speed=0.205x elapsed=0:00:17.89    \nframe=   92 fps=5.0 q=41.0 size=       0KiB time=00:00:03.83 bitrate=   1.0kbits/s speed=0.208x elapsed=0:00:18.41    \nframe=   94 fps=5.0 q=41.0 size=       0KiB time=00:00:03.91 bitrate=   1.0kbits/s speed=0.207x elapsed=0:00:18.92    \nframe=   98 fps=5.0 q=41.0 size=       0KiB time=00:00:04.08 bitrate=   0.9kbits/s speed=0.21x elapsed=0:00:19.44    \nframe=  100 fps=5.0 q=41.0 size=       0KiB time=00:00:04.16 bitrate=   0.9kbits/s speed=0.209x elapsed=0:00:19.96    \nframe=  104 fps=5.1 q=40.0 size=       0KiB time=00:00:04.33 bitrate=   0.9kbits/s speed=0.212x elapsed=0:00:20.47    \nframe=  106 fps=5.0 q=41.0 size=       0KiB time=00:00:04.41 bitrate=   0.9kbits/s speed=0.21x elapsed=0:00:20.99    \nframe=  109 fps=5.1 q=40.0 size=       0KiB time=00:00:04.54 bitrate=   0.8kbits/s speed=0.211x elapsed=0:00:21.51    \nframe=  112 fps=5.1 q=41.0 size=       0KiB time=00:00:04.66 bitrate=   0.8kbits/s speed=0.212x elapsed=0:00:22.03    \nframe=  115 fps=5.1 q=39.0 size=       0KiB time=00:00:04.79 bitrate=   0.8kbits/s speed=0.213x elapsed=0:00:22.53    \nframe=  118 fps=5.1 q=39.0 size=       0KiB time=00:00:04.91 bitrate=   0.8kbits/s speed=0.213x elapsed=0:00:23.06    \nframe=  121 fps=5.1 q=27.0 size=       0KiB time=00:00:05.04 bitrate=   0.8kbits/s speed=0.214x elapsed=0:00:23.56    \nframe=  124 fps=5.1 q=39.0 size=    1536KiB time=00:00:05.16 bitrate=2435.4kbits/s speed=0.214x elapsed=0:00:24.08    \nframe=  127 fps=5.2 q=39.0 size=    1536KiB time=00:00:05.29 bitrate=2377.9kbits/s speed=0.215x elapsed=0:00:24.60    \nframe=  130 fps=5.2 q=41.0 size=    1536KiB time=00:00:05.41 bitrate=2323.0kbits/s speed=0.216x elapsed=0:00:25.11    \nframe=  134 fps=5.2 q=41.0 size=    1536KiB time=00:00:05.58 bitrate=2253.7kbits/s speed=0.218x elapsed=0:00:25.63    \nframe=  136 fps=5.2 q=38.0 size=    1536KiB time=00:00:05.66 bitrate=2220.5kbits/s speed=0.217x elapsed=0:00:26.14    \nframe=  139 fps=5.2 q=38.0 size=    1536KiB time=00:00:05.79 bitrate=2172.6kbits/s speed=0.217x elapsed=0:00:26.67    \nframe=  141 fps=5.2 q=38.0 size=    1536KiB time=00:00:05.87 bitrate=2141.8kbits/s speed=0.216x elapsed=0:00:27.19    \nframe=  144 fps=5.2 q=36.0 size=    1536KiB time=00:00:06.00 bitrate=2097.2kbits/s speed=0.217x elapsed=0:00:27.70    \nframe=  147 fps=5.2 q=32.0 size=    1536KiB time=00:00:06.12 bitrate=2054.4kbits/s speed=0.217x elapsed=0:00:28.23    \nframe=  150 fps=5.2 q=32.0 size=    1536KiB time=00:00:06.25 bitrate=2013.3kbits/s speed=0.217x elapsed=0:00:28.74    \nframe=  154 fps=5.3 q=32.0 size=    1536KiB time=00:00:06.41 bitrate=1961.0kbits/s speed=0.219x elapsed=0:00:29.26    \nframe=  156 fps=5.2 q=34.0 size=    1536KiB time=00:00:06.50 bitrate=1935.8kbits/s speed=0.218x elapsed=0:00:29.77    \nframe=  160 fps=5.3 q=32.0 size=    1536KiB time=00:00:06.66 bitrate=1887.4kbits/s speed=0.22x elapsed=0:00:30.28    \nframe=  163 fps=5.3 q=33.0 size=    1536KiB time=00:00:06.79 bitrate=1852.7kbits/s speed=0.22x elapsed=0:00:30.80    \nframe=  165 fps=5.3 q=17.0 size=    1536KiB time=00:00:06.87 bitrate=1830.2kbits/s speed=0.22x elapsed=0:00:31.31    \nframe=  169 fps=5.3 q=31.0 size=    1536KiB time=00:00:07.04 bitrate=1786.9kbits/s speed=0.221x elapsed=0:00:31.83    \nframe=  172 fps=5.3 q=32.0 size=    1536KiB time=00:00:07.16 bitrate=1755.8kbits/s speed=0.221x elapsed=0:00:32.35    \nframe=  174 fps=5.3 q=33.0 size=    1536KiB time=00:00:07.25 bitrate=1735.6kbits/s speed=0.221x elapsed=0:00:32.86    \nframe=  178 fps=5.3 q=31.0 size=    1536KiB time=00:00:07.41 bitrate=1696.6kbits/s speed=0.222x elapsed=0:00:33.38    \nframe=  182 fps=5.4 q=32.0 size=    1536KiB time=00:00:07.58 bitrate=1659.3kbits/s speed=0.224x elapsed=0:00:33.89    \nframe=  184 fps=5.3 q=32.0 size=    1536KiB time=00:00:07.66 bitrate=1641.2kbits/s speed=0.223x elapsed=0:00:34.41    \nframe=  187 fps=5.4 q=29.0 size=    1536KiB time=00:00:07.79 bitrate=1614.9kbits/s speed=0.223x elapsed=0:00:34.92    \nframe=  191 fps=5.4 q=31.0 size=    1536KiB time=00:00:07.95 bitrate=1581.1kbits/s speed=0.225x elapsed=0:00:35.44    \nframe=  194 fps=5.4 q=31.0 size=    1536KiB time=00:00:08.08 bitrate=1556.6kbits/s speed=0.225x elapsed=0:00:35.96    \nframe=  197 fps=5.4 q=28.0 size=    1536KiB time=00:00:08.20 bitrate=1532.9kbits/s speed=0.225x elapsed=0:00:36.47    \nframe=  199 fps=5.4 q=29.0 size=    1536KiB time=00:00:08.29 bitrate=1517.5kbits/s speed=0.224x elapsed=0:00:36.99    \nframe=  203 fps=5.4 q=31.0 size=    1536KiB time=00:00:08.45 bitrate=1487.6kbits/s speed=0.225x elapsed=0:00:37.51    \nframe=  204 fps=5.4 q=31.0 size=    1536KiB time=00:00:08.50 bitrate=1480.3kbits/s speed=0.223x elapsed=0:00:38.03    \nframe=  208 fps=5.4 q=28.0 size=    1536KiB time=00:00:08.66 bitrate=1451.9kbits/s speed=0.225x elapsed=0:00:38.55    \nframe=  211 fps=5.4 q=28.0 size=    1536KiB time=00:00:08.79 bitrate=1431.2kbits/s speed=0.225x elapsed=0:00:39.06    \nframe=  214 fps=5.4 q=29.0 size=    1536KiB time=00:00:08.91 bitrate=1411.2kbits/s speed=0.225x elapsed=0:00:39.58    \nframe=  216 fps=5.4 q=28.0 size=    1536KiB time=00:00:09.00 bitrate=1398.1kbits/s speed=0.224x elapsed=0:00:40.10    \nframe=  216 fps=5.3 q=28.0 size=    1536KiB time=00:00:09.00 bitrate=1398.1kbits/s speed=0.222x elapsed=0:00:40.62    \nframe=  216 fps=5.3 q=28.0 size=    1536KiB time=00:00:09.00 bitrate=1398.1kbits/s speed=0.219x elapsed=0:00:41.13    \nframe=  216 fps=5.2 q=28.0 size=    1536KiB time=00:00:09.00 bitrate=1398.1kbits/s speed=0.216x elapsed=0:00:41.64    \nframe=  216 fps=5.1 q=28.0 size=    1536KiB time=00:00:09.00 bitrate=1398.1kbits/s speed=0.213x elapsed=0:00:42.16    \nframe=  216 fps=5.1 q=28.0 size=    1536KiB time=00:00:09.00 bitrate=1398.1kbits/s speed=0.211x elapsed=0:00:42.67    \nframe=  216 fps=5.0 q=28.0 size=    1536KiB time=00:00:09.00 bitrate=1398.1kbits/s speed=0.208x elapsed=0:00:43.19    \nframe=  216 fps=4.9 q=28.0 size=    1536KiB time=00:00:09.00 bitrate=1398.1kbits/s speed=0.206x elapsed=0:00:43.70    \n[out#0/webm @ 0000020b55b69b40] video:3530KiB audio:0KiB subtitle:0KiB other streams:0KiB global headers:0KiB muxing overhead: 0.062712%\nframe=  240 fps=5.5 q=25.0 Lsize=    3532KiB time=00:00:10.00 bitrate=2893.7kbits/s speed=0.228x elapsed=0:00:43.82    \n",
  "seconds": 43.985188007354736,
  "probe_out": {}
}